%TF.GenerationSoftware,Altium Limited,Altium Designer Develop,26.7.1 (13)*%
G04 Layer_Color=8421504*
G04 Board_Origin=0|0*
%FSLAX45Y45*%
%MOMM*%
%TF.SameCoordinates,A6A943FD-06CA-46E7-8757-D48672C4C33E*%
%TF.FilePolarity,Positive*%
%TF.FileFunction,Paste,Top*%
%TF.Part,Single*%
G01*
G75*
%TA.AperFunction,SMDPad,CuDef*%
%ADD10R,1.60000X4.00000*%
%ADD11R,1.20000X2.20000*%
%ADD12R,2.00000X1.25000*%
%ADD13R,4.00000X1.60000*%
%ADD14R,0.70000X1.00000*%
%ADD15R,1.55000X0.25000*%
%ADD16R,0.90000X1.10000*%
%ADD17O,1.30000X0.27000*%
%ADD18R,1.50000X0.90000*%
%ADD19R,1.00000X0.70000*%
%ADD20R,1.30000X1.55000*%
%ADD21R,0.70000X1.60000*%
%ADD22R,0.90000X1.50000*%
%ADD23R,0.80000X0.90000*%
%ADD24O,0.27000X1.30000*%
%ADD25R,2.40000X6.17000*%
G04:AMPARAMS|DCode=26|XSize=1.5mm|YSize=0.45mm|CornerRadius=0.1125mm|HoleSize=0mm|Usage=FLASHONLY|Rotation=0.000|XOffset=0mm|YOffset=0mm|HoleType=Round|Shape=RoundedRectangle|*
%AMROUNDEDRECTD26*
21,1,1.50000,0.22500,0,0,0.0*
21,1,1.27500,0.45000,0,0,0.0*
1,1,0.22500,0.63750,-0.11250*
1,1,0.22500,-0.63750,-0.11250*
1,1,0.22500,-0.63750,0.11250*
1,1,0.22500,0.63750,0.11250*
%
%ADD26ROUNDEDRECTD26*%
%ADD27R,1.50000X0.85000*%
%ADD28R,0.85000X1.50000*%
%ADD29R,1.20000X1.20000*%
%ADD30R,3.50000X2.20000*%
%ADD31R,2.20000X1.20000*%
%ADD32R,1.20000X1.80000*%
%TA.AperFunction,BGAPad,CuDef*%
%ADD33R,0.90000X0.90000*%
%TA.AperFunction,SMDPad,CuDef*%
%ADD34R,1.60000X1.50000*%
%ADD35R,2.20000X3.50000*%
D10*
X4686300Y5537200D02*
D03*
Y6287200D02*
D03*
D11*
X5675500Y3784600D02*
D03*
X5905500D02*
D03*
X6817100Y4648200D02*
D03*
X9715000Y4053200D02*
D03*
X11265000D02*
D03*
X6135500Y3784600D02*
D03*
X7277100Y4648200D02*
D03*
X7047100D02*
D03*
D12*
X5321300Y3784600D02*
D03*
Y4059600D02*
D03*
X6413500Y4995500D02*
D03*
X7080903Y4049565D02*
D03*
X6464300Y4059600D02*
D03*
X7594600Y4978400D02*
D03*
X8039100Y4991100D02*
D03*
X7080903Y3774565D02*
D03*
X6464300Y3784600D02*
D03*
X7594600Y4703400D02*
D03*
X8039100Y4716100D02*
D03*
X6413500Y5270500D02*
D03*
D13*
X5740400Y7912100D02*
D03*
X6490400D02*
D03*
D14*
X5727700Y5803900D02*
D03*
X5728000Y5651500D02*
D03*
X6783538Y6495381D02*
D03*
X5727400Y7137400D02*
D03*
X5727700Y7010400D02*
D03*
X12509500Y6324600D02*
D03*
Y6121400D02*
D03*
X12649500D02*
D03*
X12827000D02*
D03*
X12433600Y5270500D02*
D03*
X13426132Y7191625D02*
D03*
X12433600Y5135500D02*
D03*
X13500746Y7325888D02*
D03*
X12433600Y5407647D02*
D03*
Y5549900D02*
D03*
X11353800D02*
D03*
X11367919Y5407647D02*
D03*
X9538000Y5283200D02*
D03*
Y5524500D02*
D03*
X10731500Y5727700D02*
D03*
X14376401Y6211690D02*
D03*
X13804900Y7429500D02*
D03*
X14376401Y6062352D02*
D03*
X13893800Y7556500D02*
D03*
X8115600Y8051800D02*
D03*
X12407900Y6921500D02*
D03*
X14516402Y6211690D02*
D03*
Y6062352D02*
D03*
X14516400Y6362700D02*
D03*
X7061200Y6692900D02*
D03*
X7064000Y6372254D02*
D03*
X6069534Y5712870D02*
D03*
X12357100Y3987800D02*
D03*
X6286200Y7086600D02*
D03*
X6921500Y6210300D02*
D03*
Y6057900D02*
D03*
Y5740400D02*
D03*
X6924000Y5882440D02*
D03*
X13326292Y7677343D02*
D03*
X13753799Y7556500D02*
D03*
X13664900Y7429500D02*
D03*
X13360745Y7325888D02*
D03*
X13286131Y7191625D02*
D03*
X7975600Y8051800D02*
D03*
X8115300Y8242300D02*
D03*
X9398000Y5524500D02*
D03*
X6921500Y7035800D02*
D03*
X5461300Y7594600D02*
D03*
X5321300D02*
D03*
X6921200Y6858000D02*
D03*
Y6692900D02*
D03*
X5379473Y6884767D02*
D03*
X5239473D02*
D03*
X14945068Y5525282D02*
D03*
X12979100Y6489700D02*
D03*
X12967000Y6121400D02*
D03*
X12001500Y6535882D02*
D03*
X5588000Y5651500D02*
D03*
X5587700Y5803900D02*
D03*
X5929534Y5712870D02*
D03*
X8039400Y6146800D02*
D03*
X9429490Y5807574D02*
D03*
X5867700Y7010400D02*
D03*
X7061200Y6858000D02*
D03*
X5867400Y7137400D02*
D03*
X12293600Y5549900D02*
D03*
X12369500Y6324600D02*
D03*
X12497100Y3987800D02*
D03*
X15085068Y5525282D02*
D03*
X13119099Y6489700D02*
D03*
X14376401Y6362700D02*
D03*
X14592599Y7305268D02*
D03*
X13466292Y7677343D02*
D03*
X14592599Y7812271D02*
D03*
X14592601Y7472837D02*
D03*
X14592599Y7642554D02*
D03*
X14592601Y7962000D02*
D03*
X14592599Y8125927D02*
D03*
X8460499Y7793650D02*
D03*
X7975300Y8242300D02*
D03*
X6923538Y6495381D02*
D03*
X6924000Y6372254D02*
D03*
X6426200Y7086600D02*
D03*
X7061500Y7035800D02*
D03*
X6781500Y5740400D02*
D03*
X7899400Y6146800D02*
D03*
X14452599Y8125927D02*
D03*
X14452602Y7962000D02*
D03*
X14452901Y6921500D02*
D03*
X14452600Y7812271D02*
D03*
Y7642554D02*
D03*
X14452600Y7305268D02*
D03*
X14452602Y7472837D02*
D03*
X12547900Y6921500D02*
D03*
X14312900D02*
D03*
X12141500Y6535882D02*
D03*
X12293600Y5135500D02*
D03*
X11493800Y5549900D02*
D03*
X12293600Y5407647D02*
D03*
Y5270500D02*
D03*
X11507919Y5407647D02*
D03*
X10871500Y5727700D02*
D03*
X8320499Y7793650D02*
D03*
X9289490Y5807574D02*
D03*
X9398000Y5283200D02*
D03*
X7061500Y6210300D02*
D03*
Y6057900D02*
D03*
X7064000Y5882440D02*
D03*
D15*
X5727700Y6043700D02*
D03*
Y5978700D02*
D03*
Y6758700D02*
D03*
Y6823700D02*
D03*
X6287700Y6433700D02*
D03*
Y6823700D02*
D03*
Y6303700D02*
D03*
Y6238700D02*
D03*
Y6043700D02*
D03*
Y5978700D02*
D03*
Y6693700D02*
D03*
X5727700D02*
D03*
Y6433700D02*
D03*
Y6628700D02*
D03*
Y6498700D02*
D03*
X6287700Y6628700D02*
D03*
Y6563700D02*
D03*
Y6498700D02*
D03*
X5727700Y6108700D02*
D03*
Y6368700D02*
D03*
Y6173700D02*
D03*
Y6303700D02*
D03*
X6283700Y6173700D02*
D03*
Y6108700D02*
D03*
X5727700Y6238700D02*
D03*
Y6563700D02*
D03*
X6287700Y6368700D02*
D03*
Y6758700D02*
D03*
D16*
X12661600Y6324600D02*
D03*
X12801601Y6504600D02*
D03*
Y6324600D02*
D03*
X12661600Y6504600D02*
D03*
D17*
X11994400Y7511978D02*
D03*
Y7561978D02*
D03*
Y7461977D02*
D03*
Y7411978D02*
D03*
X12844400Y7712000D02*
D03*
Y7462000D02*
D03*
Y7512000D02*
D03*
Y7262000D02*
D03*
Y7312000D02*
D03*
X11994400Y7311978D02*
D03*
Y7361977D02*
D03*
Y7811978D02*
D03*
Y7261978D02*
D03*
X12844400Y7362000D02*
D03*
X11994400Y7611977D02*
D03*
X12844400Y7662000D02*
D03*
X11994400Y7711977D02*
D03*
X12844400Y7412000D02*
D03*
Y7612000D02*
D03*
Y7762000D02*
D03*
X11994400Y7661978D02*
D03*
Y7761978D02*
D03*
X12844400Y7562000D02*
D03*
Y7812000D02*
D03*
D18*
X11159900Y7681200D02*
D03*
X9409900Y7427200D02*
D03*
Y6411200D02*
D03*
X11159900Y6538200D02*
D03*
X9409900D02*
D03*
X11159900Y6919200D02*
D03*
Y7046200D02*
D03*
Y7554200D02*
D03*
Y6665200D02*
D03*
X9409900Y7173200D02*
D03*
X11159900Y7935200D02*
D03*
Y7173200D02*
D03*
X9409900Y6919200D02*
D03*
X11159900Y6411200D02*
D03*
Y6792200D02*
D03*
X9409900Y8062200D02*
D03*
X11159900D02*
D03*
X9409900Y7808200D02*
D03*
Y6792200D02*
D03*
Y6665200D02*
D03*
X11159900Y7427200D02*
D03*
X9409900Y7935200D02*
D03*
X11159900Y7300200D02*
D03*
Y7808200D02*
D03*
X9409900Y7554200D02*
D03*
Y7681200D02*
D03*
Y7046200D02*
D03*
Y7300200D02*
D03*
D19*
X7150100Y8267700D02*
D03*
X7366000Y8280400D02*
D03*
X11507635Y6400800D02*
D03*
X13790996Y6059057D02*
D03*
X13912289Y6057900D02*
D03*
X7366000Y8140400D02*
D03*
X7150100Y8407700D02*
D03*
X7467600Y6451900D02*
D03*
X9072452Y7162609D02*
D03*
X11872499Y8351800D02*
D03*
X12001500Y8356900D02*
D03*
X4864100Y7416500D02*
D03*
X4902328Y7061767D02*
D03*
X8636000Y6769100D02*
D03*
X13912289Y5917900D02*
D03*
X13790996Y5919057D02*
D03*
X12192000Y8216900D02*
D03*
X12001500D02*
D03*
X9072452Y7302609D02*
D03*
X11317519Y6397254D02*
D03*
X4902328Y6921767D02*
D03*
X4864100Y7556500D02*
D03*
X8445500Y7315500D02*
D03*
X8636000Y6909100D02*
D03*
X9080500Y7658100D02*
D03*
X9194800Y8077500D02*
D03*
X11709400Y8051800D02*
D03*
X12192000Y8356900D02*
D03*
X9080500Y7798100D02*
D03*
X7467600Y6311900D02*
D03*
X7327900D02*
D03*
X7568241Y7272195D02*
D03*
X7327900Y6451900D02*
D03*
X7518400Y5841700D02*
D03*
X11872499Y8211800D02*
D03*
X7568241Y7132195D02*
D03*
X7518400Y5981700D02*
D03*
X11709400Y7911800D02*
D03*
X11507635Y6260800D02*
D03*
X11317519Y6257254D02*
D03*
X9194800Y7937500D02*
D03*
X8445500Y7175500D02*
D03*
D20*
X12159364Y4778236D02*
D03*
Y3983236D02*
D03*
X11709363D02*
D03*
Y4778236D02*
D03*
D21*
X10605000Y5113200D02*
D03*
X10715000D02*
D03*
X9945000D02*
D03*
X10055000D02*
D03*
X10495000D02*
D03*
X10275000D02*
D03*
X10165000D02*
D03*
X10385000D02*
D03*
X9835000D02*
D03*
D22*
X9840900Y6291200D02*
D03*
X10856900D02*
D03*
X10729900D02*
D03*
X9713900D02*
D03*
X10094900D02*
D03*
X9967900D02*
D03*
X10475900D02*
D03*
X10348900D02*
D03*
X10602900D02*
D03*
X10221900D02*
D03*
D23*
X8267700Y8051800D02*
D03*
X7835900Y8039100D02*
D03*
X8267700Y8241800D02*
D03*
X7635900Y8134100D02*
D03*
X8467700Y8146800D02*
D03*
X7835900Y8229100D02*
D03*
D24*
X12144400Y7112000D02*
D03*
X12244400Y7962000D02*
D03*
X12344400D02*
D03*
X12694400Y7112000D02*
D03*
X12194400Y7962000D02*
D03*
X12544400D02*
D03*
X12644400D02*
D03*
X12394400D02*
D03*
X12594400D02*
D03*
X12494400D02*
D03*
X12294400D02*
D03*
X12544400Y7112000D02*
D03*
X12494400D02*
D03*
X12444400D02*
D03*
X12694400Y7962000D02*
D03*
X12444400D02*
D03*
X12144400D02*
D03*
X12644400Y7112000D02*
D03*
X12594400D02*
D03*
X12394400D02*
D03*
X12344400D02*
D03*
X12294400D02*
D03*
X12244400D02*
D03*
X12194400D02*
D03*
D25*
X6007700Y6401200D02*
D03*
D26*
X7852701Y6578259D02*
D03*
X8432701Y6773259D02*
D03*
X7852701Y6708259D02*
D03*
Y6838259D02*
D03*
Y6643259D02*
D03*
X8432701Y6578259D02*
D03*
X7852701Y6318259D02*
D03*
X8432701Y6383259D02*
D03*
Y6838259D02*
D03*
Y6643259D02*
D03*
Y6318259D02*
D03*
Y6513259D02*
D03*
Y6448259D02*
D03*
X7852701Y6773259D02*
D03*
Y6383259D02*
D03*
Y6903259D02*
D03*
Y6448259D02*
D03*
X8432701Y6903259D02*
D03*
Y6708259D02*
D03*
X7852701Y6513259D02*
D03*
D27*
X5105400Y7594600D02*
D03*
Y7419600D02*
D03*
X5077731Y7053267D02*
D03*
Y6878267D02*
D03*
X8826500Y6769100D02*
D03*
X7416800Y6807200D02*
D03*
Y6982200D02*
D03*
X12406343Y8303922D02*
D03*
X8204200Y7337800D02*
D03*
X8826500Y6944100D02*
D03*
X9004300Y8112500D02*
D03*
X11557000Y8087100D02*
D03*
X12406343Y8478922D02*
D03*
X7379545Y7294109D02*
D03*
X7353300Y5819400D02*
D03*
X7379545Y7119109D02*
D03*
X7353300Y5994400D02*
D03*
X11557000Y7912100D02*
D03*
X9004300Y7937500D02*
D03*
X8204200Y7162800D02*
D03*
D28*
X7516119Y6657179D02*
D03*
X9461500Y5981700D02*
D03*
X14636099Y7121000D02*
D03*
X7341119Y6657179D02*
D03*
X8029500Y5970431D02*
D03*
X14461099Y7121000D02*
D03*
X9286500Y5981700D02*
D03*
X8204500Y5970431D02*
D03*
D29*
X8779711Y7299926D02*
D03*
Y7089926D02*
D03*
D30*
X5905500Y4404600D02*
D03*
X7047100Y5268200D02*
D03*
D31*
X7419100Y4230500D02*
D03*
Y3770500D02*
D03*
Y4000500D02*
D03*
D32*
X9715000Y4983200D02*
D03*
D33*
X9994900Y7328200D02*
D03*
Y7188200D02*
D03*
X10134900Y7328200D02*
D03*
Y7188200D02*
D03*
X10274900Y7328200D02*
D03*
Y7188200D02*
D03*
X10134900Y7468200D02*
D03*
X10274900D02*
D03*
X9994900D02*
D03*
D34*
X11175000Y5008200D02*
D03*
D35*
X8039100Y4000500D02*
D03*
%TF.MD5,6ba889b8b8732bc55b06cc5722549843*%
M02*
