%TF.GenerationSoftware,Altium Limited,Altium Designer Develop,26.7.1 (13)*%
G04 Layer_Color=2752767*
G04 Board_Origin=0|0*
%FSLAX45Y45*%
%MOMM*%
%TF.SameCoordinates,A6A943FD-06CA-46E7-8757-D48672C4C33E*%
%TF.FilePolarity,Positive*%
%TF.FileFunction,Drawing*%
%TF.Part,Single*%
G01*
G75*
%TA.AperFunction,NonConductor*%
%ADD114C,0.12700*%
%ADD115C,0.16933*%
%ADD116C,0.10160*%
D114*
X4305300Y7010400D02*
Y7112000D01*
X4406900D01*
Y7010400D01*
X4305300D01*
Y7360400D02*
Y7462000D01*
X4406900D01*
Y7360400D01*
X4305300D01*
Y4584700D02*
Y4686300D01*
X4406900D01*
Y4584700D01*
X4305300D01*
X13312100Y5245800D02*
Y5220400D01*
X13362900D01*
Y5245800D01*
X13388300D01*
Y5296600D01*
X13362900D01*
Y5322000D01*
X13312100D01*
Y5296600D01*
X13286700D01*
Y5245800D01*
X13312100D01*
X13566100D02*
Y5220400D01*
X13616901D01*
Y5245800D01*
X13642300D01*
Y5296600D01*
X13616901D01*
Y5322000D01*
X13566100D01*
Y5296600D01*
X13540700D01*
Y5245800D01*
X13566100D01*
X13439101Y5499800D02*
Y5474400D01*
X13489900D01*
Y5499800D01*
X13515300D01*
Y5550600D01*
X13489900D01*
Y5576000D01*
X13439101D01*
Y5550600D01*
X13413699D01*
Y5499800D01*
X13439101D01*
X13820100Y5245800D02*
Y5220400D01*
X13870900D01*
Y5245800D01*
X13896300D01*
Y5296600D01*
X13870900D01*
Y5322000D01*
X13820100D01*
Y5296600D01*
X13794701D01*
Y5245800D01*
X13820100D01*
X13947099Y5499800D02*
Y5474400D01*
X13997900D01*
Y5499800D01*
X14023300D01*
Y5550600D01*
X13997900D01*
Y5576000D01*
X13947099D01*
Y5550600D01*
X13921700D01*
Y5499800D01*
X13947099D01*
X13693100D02*
Y5474400D01*
X13743900D01*
Y5499800D01*
X13769299D01*
Y5550600D01*
X13743900D01*
Y5576000D01*
X13693100D01*
Y5550600D01*
X13667700D01*
Y5499800D01*
X13693100D01*
X14518700Y4890400D02*
X14544099Y4941200D01*
X14518700Y4992000D01*
X14569501Y4966600D01*
X14620300Y4992000D01*
X14594901Y4941200D01*
X14620300Y4890400D01*
X14569501Y4915800D01*
X14518700Y4890400D01*
X12943700D02*
X12969099Y4941200D01*
X12943700Y4992000D01*
X12994501Y4966600D01*
X13045300Y4992000D01*
X13019901Y4941200D01*
X13045300Y4890400D01*
X12994501Y4915800D01*
X12943700Y4890400D01*
X14201100Y5499800D02*
Y5474400D01*
X14251900D01*
Y5499800D01*
X14277299D01*
Y5550600D01*
X14251900D01*
Y5576000D01*
X14201100D01*
Y5550600D01*
X14175700D01*
Y5499800D01*
X14201100D01*
X4305300Y4934700D02*
Y5036300D01*
X4406900D01*
Y4934700D01*
X4305300D01*
X9995000Y3962400D02*
X9944200Y4064000D01*
X10045800D01*
X9995000Y3962400D01*
X10795000D02*
X10744200Y4064000D01*
X10845800D01*
X10795000Y3962400D01*
X13210500Y4585400D02*
X13235899Y4610800D01*
X13261301D01*
X13235899Y4636200D01*
X13261301Y4661600D01*
X13235899D01*
X13210500Y4687000D01*
X13185100Y4661600D01*
X13159700D01*
X13185100Y4636200D01*
X13159700Y4610800D01*
X13185100D01*
X13210500Y4585400D01*
X14074100Y5245800D02*
Y5220400D01*
X14124899D01*
Y5245800D01*
X14150301D01*
Y5296600D01*
X14124899D01*
Y5322000D01*
X14074100D01*
Y5296600D01*
X14048700D01*
Y5245800D01*
X14074100D01*
X14353500Y4585400D02*
X14378900Y4610800D01*
X14404300D01*
X14378900Y4636200D01*
X14404300Y4661600D01*
X14378900D01*
X14353500Y4687000D01*
X14328101Y4661600D01*
X14302699D01*
X14328101Y4636200D01*
X14302699Y4610800D01*
X14328101D01*
X14353500Y4585400D01*
X4297299Y8402701D02*
Y8504301D01*
X4398899D01*
Y8402701D01*
X4297299D01*
X4317619Y8423021D02*
Y8483981D01*
X4378579D01*
Y8423021D01*
X4317619D01*
X4297300Y3890900D02*
Y3992500D01*
X4398900D01*
Y3890900D01*
X4297300D01*
X4317620Y3911220D02*
Y3972180D01*
X4378580D01*
Y3911220D01*
X4317620D01*
X15278101Y8402700D02*
Y8504300D01*
X15379700D01*
Y8402700D01*
X15278101D01*
X15298421Y8423020D02*
Y8483980D01*
X15359380D01*
Y8423020D01*
X15298421D01*
X15278101Y3898900D02*
Y4000500D01*
X15379700D01*
Y3898900D01*
X15278101D01*
X15298421Y3919220D02*
Y3980180D01*
X15359380D01*
Y3919220D01*
X15298421D01*
X5826900Y6220400D02*
X5852300D01*
X5877700Y6245800D01*
X5903100Y6220400D01*
X5928500D01*
Y6245800D01*
X5903100Y6271200D01*
X5928500Y6296600D01*
Y6322000D01*
X5903100D01*
X5877700Y6296600D01*
X5852300Y6322000D01*
X5826900D01*
Y6296600D01*
X5852300Y6271200D01*
X5826900Y6245800D01*
Y6220400D01*
Y6090400D02*
X5852300D01*
X5877700Y6115800D01*
X5903100Y6090400D01*
X5928500D01*
Y6115800D01*
X5903100Y6141200D01*
X5928500Y6166600D01*
Y6192000D01*
X5903100D01*
X5877700Y6166600D01*
X5852300Y6192000D01*
X5826900D01*
Y6166600D01*
X5852300Y6141200D01*
X5826900Y6115800D01*
Y6090400D01*
X6087039Y6092980D02*
X6112439D01*
X6137839Y6118380D01*
X6163239Y6092980D01*
X6188639D01*
Y6118380D01*
X6163239Y6143780D01*
X6188639Y6169180D01*
Y6194580D01*
X6163239D01*
X6137839Y6169180D01*
X6112439Y6194580D01*
X6087039D01*
Y6169180D01*
X6112439Y6143780D01*
X6087039Y6118380D01*
Y6092980D01*
X6089167Y6222787D02*
X6114567D01*
X6139967Y6248187D01*
X6165367Y6222787D01*
X6190767D01*
Y6248187D01*
X6165367Y6273587D01*
X6190767Y6298987D01*
Y6324387D01*
X6165367D01*
X6139967Y6298987D01*
X6114567Y6324387D01*
X6089167D01*
Y6298987D01*
X6114567Y6273587D01*
X6089167Y6248187D01*
Y6222787D01*
X5955180Y6192998D02*
X6005980Y6243798D01*
X6056780Y6192998D01*
X6005980Y6142198D01*
X5955180Y6192998D01*
X5826900Y6610400D02*
X5852300D01*
X5877700Y6635800D01*
X5903100Y6610400D01*
X5928500D01*
Y6635800D01*
X5903100Y6661200D01*
X5928500Y6686600D01*
Y6712000D01*
X5903100D01*
X5877700Y6686600D01*
X5852300Y6712000D01*
X5826900D01*
Y6686600D01*
X5852300Y6661200D01*
X5826900Y6635800D01*
Y6610400D01*
Y6480400D02*
X5852300D01*
X5877700Y6505800D01*
X5903100Y6480400D01*
X5928500D01*
Y6505800D01*
X5903100Y6531200D01*
X5928500Y6556600D01*
Y6582000D01*
X5903100D01*
X5877700Y6556600D01*
X5852300Y6582000D01*
X5826900D01*
Y6556600D01*
X5852300Y6531200D01*
X5826900Y6505800D01*
Y6480400D01*
X6082505Y6613327D02*
X6107905D01*
X6133305Y6638727D01*
X6158705Y6613327D01*
X6184105D01*
Y6638727D01*
X6158705Y6664127D01*
X6184105Y6689527D01*
Y6714927D01*
X6158705D01*
X6133305Y6689527D01*
X6107905Y6714927D01*
X6082505D01*
Y6689527D01*
X6107905Y6664127D01*
X6082505Y6638727D01*
Y6613327D01*
X6087063Y6483134D02*
X6112463D01*
X6137863Y6508534D01*
X6163263Y6483134D01*
X6188663D01*
Y6508534D01*
X6163263Y6533934D01*
X6188663Y6559334D01*
Y6584734D01*
X6163263D01*
X6137863Y6559334D01*
X6112463Y6584734D01*
X6087063D01*
Y6559334D01*
X6112463Y6533934D01*
X6087063Y6508534D01*
Y6483134D01*
X5954050Y6623830D02*
X6004850Y6674630D01*
X6055650Y6623830D01*
X6004850Y6573030D01*
X5954050Y6623830D01*
X5826900Y6350400D02*
X5852300D01*
X5877700Y6375800D01*
X5903100Y6350400D01*
X5928500D01*
Y6375800D01*
X5903100Y6401200D01*
X5928500Y6426600D01*
Y6452000D01*
X5903100D01*
X5877700Y6426600D01*
X5852300Y6452000D01*
X5826900D01*
Y6426600D01*
X5852300Y6401200D01*
X5826900Y6375800D01*
Y6350400D01*
X6089170Y6352614D02*
X6114570D01*
X6139970Y6378014D01*
X6165370Y6352614D01*
X6190770D01*
Y6378014D01*
X6165370Y6403414D01*
X6190770Y6428814D01*
Y6454214D01*
X6165370D01*
X6139970Y6428814D01*
X6114570Y6454214D01*
X6089170D01*
Y6428814D01*
X6114570Y6403414D01*
X6089170Y6378014D01*
Y6352614D01*
X5958634Y6414161D02*
X6009434Y6464961D01*
X6060234Y6414161D01*
X6009434Y6363361D01*
X5958634Y6414161D01*
X5964413Y6740061D02*
X5989813D01*
X6015213Y6765461D01*
X6040613Y6740061D01*
X6066013D01*
Y6765461D01*
X6040613Y6790861D01*
X6066013Y6816261D01*
Y6841661D01*
X6040613D01*
X6015213Y6816261D01*
X5989813Y6841661D01*
X5964413D01*
Y6816261D01*
X5989813Y6790861D01*
X5964413Y6765461D01*
Y6740061D01*
X5956900Y5960400D02*
X5982300D01*
X6007700Y5985800D01*
X6033100Y5960400D01*
X6058500D01*
Y5985800D01*
X6033100Y6011200D01*
X6058500Y6036600D01*
Y6062000D01*
X6033100D01*
X6007700Y6036600D01*
X5982300Y6062000D01*
X5956900D01*
Y6036600D01*
X5982300Y6011200D01*
X5956900Y5985800D01*
Y5960400D01*
X6086900D02*
X6112300D01*
X6137700Y5985800D01*
X6163100Y5960400D01*
X6188500D01*
Y5985800D01*
X6163100Y6011200D01*
X6188500Y6036600D01*
Y6062000D01*
X6163100D01*
X6137700Y6036600D01*
X6112300Y6062000D01*
X6086900D01*
Y6036600D01*
X6112300Y6011200D01*
X6086900Y5985800D01*
Y5960400D01*
X6086518Y6741216D02*
X6111918D01*
X6137318Y6766616D01*
X6162718Y6741216D01*
X6188118D01*
Y6766616D01*
X6162718Y6792016D01*
X6188118Y6817416D01*
Y6842816D01*
X6162718D01*
X6137318Y6817416D01*
X6111918Y6842816D01*
X6086518D01*
Y6817416D01*
X6111918Y6792016D01*
X6086518Y6766616D01*
Y6741216D01*
X5826900Y5960400D02*
X5852300D01*
X5877700Y5985800D01*
X5903100Y5960400D01*
X5928500D01*
Y5985800D01*
X5903100Y6011200D01*
X5928500Y6036600D01*
Y6062000D01*
X5903100D01*
X5877700Y6036600D01*
X5852300Y6062000D01*
X5826900D01*
Y6036600D01*
X5852300Y6011200D01*
X5826900Y5985800D01*
Y5960400D01*
Y6740400D02*
X5852300D01*
X5877700Y6765800D01*
X5903100Y6740400D01*
X5928500D01*
Y6765800D01*
X5903100Y6791200D01*
X5928500Y6816600D01*
Y6842000D01*
X5903100D01*
X5877700Y6816600D01*
X5852300Y6842000D01*
X5826900D01*
Y6816600D01*
X5852300Y6791200D01*
X5826900Y6765800D01*
Y6740400D01*
X10224100Y7207400D02*
X10249500D01*
X10274900Y7232800D01*
X10300300Y7207400D01*
X10325700D01*
Y7232800D01*
X10300300Y7258200D01*
X10325700Y7283600D01*
Y7309000D01*
X10300300D01*
X10274900Y7283600D01*
X10249500Y7309000D01*
X10224100D01*
Y7283600D01*
X10249500Y7258200D01*
X10224100Y7232800D01*
Y7207400D01*
X10084100D02*
X10109500D01*
X10134900Y7232800D01*
X10160300Y7207400D01*
X10185700D01*
Y7232800D01*
X10160300Y7258200D01*
X10185700Y7283600D01*
Y7309000D01*
X10160300D01*
X10134900Y7283600D01*
X10109500Y7309000D01*
X10084100D01*
Y7283600D01*
X10109500Y7258200D01*
X10084100Y7232800D01*
Y7207400D01*
X9944100D02*
X9969500D01*
X9994900Y7232800D01*
X10020300Y7207400D01*
X10045700D01*
Y7232800D01*
X10020300Y7258200D01*
X10045700Y7283600D01*
Y7309000D01*
X10020300D01*
X9994900Y7283600D01*
X9969500Y7309000D01*
X9944100D01*
Y7283600D01*
X9969500Y7258200D01*
X9944100Y7232800D01*
Y7207400D01*
Y7347400D02*
X9969500D01*
X9994900Y7372800D01*
X10020300Y7347400D01*
X10045700D01*
Y7372800D01*
X10020300Y7398200D01*
X10045700Y7423600D01*
Y7449000D01*
X10020300D01*
X9994900Y7423600D01*
X9969500Y7449000D01*
X9944100D01*
Y7423600D01*
X9969500Y7398200D01*
X9944100Y7372800D01*
Y7347400D01*
X10224100D02*
X10249500D01*
X10274900Y7372800D01*
X10300300Y7347400D01*
X10325700D01*
Y7372800D01*
X10300300Y7398200D01*
X10325700Y7423600D01*
Y7449000D01*
X10300300D01*
X10274900Y7423600D01*
X10249500Y7449000D01*
X10224100D01*
Y7423600D01*
X10249500Y7398200D01*
X10224100Y7372800D01*
Y7347400D01*
X10084100D02*
X10109500D01*
X10134900Y7372800D01*
X10160300Y7347400D01*
X10185700D01*
Y7372800D01*
X10160300Y7398200D01*
X10185700Y7423600D01*
Y7449000D01*
X10160300D01*
X10134900Y7423600D01*
X10109500Y7449000D01*
X10084100D01*
Y7423600D01*
X10109500Y7398200D01*
X10084100Y7372800D01*
Y7347400D01*
X10014100Y7277400D02*
X10039500D01*
X10064900Y7302800D01*
X10090300Y7277400D01*
X10115700D01*
Y7302800D01*
X10090300Y7328200D01*
X10115700Y7353600D01*
Y7379000D01*
X10090300D01*
X10064900Y7353600D01*
X10039500Y7379000D01*
X10014100D01*
Y7353600D01*
X10039500Y7328200D01*
X10014100Y7302800D01*
Y7277400D01*
Y7137400D02*
X10039500D01*
X10064900Y7162800D01*
X10090300Y7137400D01*
X10115700D01*
Y7162800D01*
X10090300Y7188200D01*
X10115700Y7213600D01*
Y7239000D01*
X10090300D01*
X10064900Y7213600D01*
X10039500Y7239000D01*
X10014100D01*
Y7213600D01*
X10039500Y7188200D01*
X10014100Y7162800D01*
Y7137400D01*
X10154100D02*
X10179500D01*
X10204900Y7162800D01*
X10230300Y7137400D01*
X10255700D01*
Y7162800D01*
X10230300Y7188200D01*
X10255700Y7213600D01*
Y7239000D01*
X10230300D01*
X10204900Y7213600D01*
X10179500Y7239000D01*
X10154100D01*
Y7213600D01*
X10179500Y7188200D01*
X10154100Y7162800D01*
Y7137400D01*
Y7277400D02*
X10179500D01*
X10204900Y7302800D01*
X10230300Y7277400D01*
X10255700D01*
Y7302800D01*
X10230300Y7328200D01*
X10255700Y7353600D01*
Y7379000D01*
X10230300D01*
X10204900Y7353600D01*
X10179500Y7379000D01*
X10154100D01*
Y7353600D01*
X10179500Y7328200D01*
X10154100Y7302800D01*
Y7277400D01*
Y7417400D02*
X10179500D01*
X10204900Y7442800D01*
X10230300Y7417400D01*
X10255700D01*
Y7442800D01*
X10230300Y7468200D01*
X10255700Y7493600D01*
Y7519000D01*
X10230300D01*
X10204900Y7493600D01*
X10179500Y7519000D01*
X10154100D01*
Y7493600D01*
X10179500Y7468200D01*
X10154100Y7442800D01*
Y7417400D01*
X10014100D02*
X10039500D01*
X10064900Y7442800D01*
X10090300Y7417400D01*
X10115700D01*
Y7442800D01*
X10090300Y7468200D01*
X10115700Y7493600D01*
Y7519000D01*
X10090300D01*
X10064900Y7493600D01*
X10039500Y7519000D01*
X10014100D01*
Y7493600D01*
X10039500Y7468200D01*
X10014100Y7442800D01*
Y7417400D01*
D115*
X7899400Y8636000D02*
G03*
X7899400Y8636000I-50800J0D01*
G01*
X7645400Y8623300D02*
G03*
X7645400Y8623300I-50800J0D01*
G01*
X8407400Y8636000D02*
G03*
X8407400Y8636000I-50800J0D01*
G01*
X13200301Y4140200D02*
G03*
X13200301Y4140200I-50800J0D01*
G01*
X14465300Y4298200D02*
G03*
X14465300Y4298200I-50800J0D01*
G01*
X8775700Y5537200D02*
G03*
X8775700Y5537200I-50800J0D01*
G01*
X7391400Y8623300D02*
G03*
X7391400Y8623300I-50800J0D01*
G01*
X8153400Y8636000D02*
G03*
X8153400Y8636000I-50800J0D01*
G01*
X14211301Y4140200D02*
G03*
X14211301Y4140200I-50800J0D01*
G01*
X13454300Y4298200D02*
G03*
X13454300Y4298200I-50800J0D01*
G01*
X7137400Y8623300D02*
G03*
X7137400Y8623300I-50800J0D01*
G01*
X8775700Y5283200D02*
G03*
X8775700Y5283200I-50800J0D01*
G01*
X6694938Y6495381D02*
G03*
X6694938Y6495381I-50800J0D01*
G01*
X5332702Y7923502D02*
G03*
X5332702Y7923502I-50800J0D01*
G01*
X12661900Y5270500D02*
G03*
X12661900Y5270500I-50800J0D01*
G01*
Y5118100D02*
G03*
X12661900Y5118100I-50800J0D01*
G01*
X7216140Y8128000D02*
G03*
X7216140Y8128000I-50800J0D01*
G01*
X11417300Y7670800D02*
G03*
X11417300Y7670800I-50800J0D01*
G01*
X12674900Y5549900D02*
G03*
X12674900Y5549900I-50800J0D01*
G01*
X9288762Y5590791D02*
G03*
X9288762Y5590791I-50800J0D01*
G01*
X8972355Y7423662D02*
G03*
X8972355Y7423662I-50800J0D01*
G01*
X12425249Y4778236D02*
G03*
X12425249Y4778236I-50800J0D01*
G01*
X8966200Y6350000D02*
G03*
X8966200Y6350000I-50800J0D01*
G01*
X9893300Y6045200D02*
G03*
X9893300Y6045200I-50800J0D01*
G01*
X10668000Y5283200D02*
G03*
X10668000Y5283200I-50800J0D01*
G01*
X9478054Y6156597D02*
G03*
X9478054Y6156597I-50800J0D01*
G01*
X10774940Y5293035D02*
G03*
X10774940Y5293035I-50800J0D01*
G01*
X9987329Y5280613D02*
G03*
X9987329Y5280613I-50800J0D01*
G01*
X11023600Y6121400D02*
G03*
X11023600Y6121400I-50800J0D01*
G01*
X10104339Y5287579D02*
G03*
X10104339Y5287579I-50800J0D01*
G01*
X10901390Y6112185D02*
G03*
X10901390Y6112185I-50800J0D01*
G01*
X11736235Y6908800D02*
G03*
X11736235Y6908800I-50800J0D01*
G01*
X11558435Y6910914D02*
G03*
X11558435Y6910914I-50800J0D01*
G01*
X11799672Y7048500D02*
G03*
X11799672Y7048500I-50800J0D01*
G01*
X11531600D02*
G03*
X11531600Y7048500I-50800J0D01*
G01*
X14084300Y6223000D02*
G03*
X14084300Y6223000I-50800J0D01*
G01*
X13690601Y6070600D02*
G03*
X13690601Y6070600I-50800J0D01*
G01*
X11427382Y7539733D02*
G03*
X11427382Y7539733I-50800J0D01*
G01*
X7404100Y7988300D02*
G03*
X7404100Y7988300I-50800J0D01*
G01*
X12191099Y6664539D02*
G03*
X12191099Y6664539I-50800J0D01*
G01*
X11492395Y6662159D02*
G03*
X11492395Y6662159I-50800J0D01*
G01*
X14566901Y5867400D02*
G03*
X14566901Y5867400I-50800J0D01*
G01*
X11923299Y8529600D02*
G03*
X11923299Y8529600I-50800J0D01*
G01*
X12052300Y8534400D02*
G03*
X12052300Y8534400I-50800J0D01*
G01*
X13182713Y7396549D02*
G03*
X13182713Y7396549I-50800J0D01*
G01*
X13322301Y7543800D02*
G03*
X13322301Y7543800I-50800J0D01*
G01*
X13119099Y7175500D02*
G03*
X13119099Y7175500I-50800J0D01*
G01*
X13271500Y7315200D02*
G03*
X13271500Y7315200I-50800J0D01*
G01*
X5511800Y7404100D02*
G03*
X5511800Y7404100I-50800J0D01*
G01*
Y6438900D02*
G03*
X5511800Y6438900I-50800J0D01*
G01*
X5428427Y6088762D02*
G03*
X5428427Y6088762I-50800J0D01*
G01*
X5422900Y6375400D02*
G03*
X5422900Y6375400I-50800J0D01*
G01*
X11938000Y7048500D02*
G03*
X11938000Y7048500I-50800J0D01*
G01*
X11394996Y7923505D02*
G03*
X11394996Y7923505I-50800J0D01*
G01*
X11867708Y7171109D02*
G03*
X11867708Y7171109I-50800J0D01*
G01*
X11531600Y7175500D02*
G03*
X11531600Y7175500I-50800J0D01*
G01*
X11355679Y6590344D02*
G03*
X11355679Y6590344I-50800J0D01*
G01*
X7696200Y7493000D02*
G03*
X7696200Y7493000I-50800J0D01*
G01*
X12052823Y6783668D02*
G03*
X12052823Y6783668I-50800J0D01*
G01*
X11492395Y6787350D02*
G03*
X11492395Y6787350I-50800J0D01*
G01*
X6591300Y6367200D02*
G03*
X6591300Y6367200I-50800J0D01*
G01*
Y7086600D02*
G03*
X6591300Y7086600I-50800J0D01*
G01*
X6660890Y5740853D02*
G03*
X6660890Y5740853I-50800J0D01*
G01*
X11425893Y7405498D02*
G03*
X11425893Y7405498I-50800J0D01*
G01*
X7785100Y5842000D02*
G03*
X7785100Y5842000I-50800J0D01*
G01*
Y6146800D02*
G03*
X7785100Y6146800I-50800J0D01*
G01*
X8051800Y7023100D02*
G03*
X8051800Y7023100I-50800J0D01*
G01*
X8050900Y6773755D02*
G03*
X8050900Y6773755I-50800J0D01*
G01*
X8059968Y6386212D02*
G03*
X8059968Y6386212I-50800J0D01*
G01*
X13055588Y7383327D02*
G03*
X13055588Y7383327I-50800J0D01*
G01*
X13052412Y7610041D02*
G03*
X13052412Y7610041I-50800J0D01*
G01*
X13063927Y7770132D02*
G03*
X13063927Y7770132I-50800J0D01*
G01*
X12646899Y8118938D02*
G03*
X12646899Y8118938I-50800J0D01*
G01*
X12546353Y8119608D02*
G03*
X12546353Y8119608I-50800J0D01*
G01*
X12344400Y8128000D02*
G03*
X12344400Y8128000I-50800J0D01*
G01*
X8039100Y7162800D02*
G03*
X8039100Y7162800I-50800J0D01*
G01*
X14046201Y6921500D02*
G03*
X14046201Y6921500I-50800J0D01*
G01*
X13373100D02*
G03*
X13373100Y6921500I-50800J0D01*
G01*
X12350536Y6546977D02*
G03*
X12350536Y6546977I-50800J0D01*
G01*
X11709400Y6261100D02*
G03*
X11709400Y6261100I-50800J0D01*
G01*
X10426700Y5384800D02*
G03*
X10426700Y5384800I-50800J0D01*
G01*
X9347200Y5676900D02*
G03*
X9347200Y5676900I-50800J0D01*
G01*
X9610167Y4298437D02*
G03*
X9610167Y4298437I-50800J0D01*
G01*
X11553005Y4305043D02*
G03*
X11553005Y4305043I-50800J0D01*
G01*
X8699560Y7932098D02*
G03*
X8699560Y7932098I-50800J0D01*
G01*
X8698190Y7740108D02*
G03*
X8698190Y7740108I-50800J0D01*
G01*
D116*
X6674618Y6495381D02*
G03*
X6674618Y6495381I-30480J0D01*
G01*
X5312382Y7923502D02*
G03*
X5312382Y7923502I-30480J0D01*
G01*
X12641580Y5270500D02*
G03*
X12641580Y5270500I-30480J0D01*
G01*
Y5118100D02*
G03*
X12641580Y5118100I-30480J0D01*
G01*
X7195820Y8128000D02*
G03*
X7195820Y8128000I-30480J0D01*
G01*
X11396980Y7670800D02*
G03*
X11396980Y7670800I-30480J0D01*
G01*
X12654580Y5549900D02*
G03*
X12654580Y5549900I-30480J0D01*
G01*
X9268442Y5590791D02*
G03*
X9268442Y5590791I-30480J0D01*
G01*
X8952035Y7423662D02*
G03*
X8952035Y7423662I-30480J0D01*
G01*
X12404929Y4778236D02*
G03*
X12404929Y4778236I-30480J0D01*
G01*
X8945880Y6350000D02*
G03*
X8945880Y6350000I-30480J0D01*
G01*
X9872980Y6045200D02*
G03*
X9872980Y6045200I-30480J0D01*
G01*
X10647680Y5283200D02*
G03*
X10647680Y5283200I-30480J0D01*
G01*
X9457734Y6156597D02*
G03*
X9457734Y6156597I-30480J0D01*
G01*
X10754620Y5293035D02*
G03*
X10754620Y5293035I-30480J0D01*
G01*
X9967009Y5280613D02*
G03*
X9967009Y5280613I-30480J0D01*
G01*
X11003280Y6121400D02*
G03*
X11003280Y6121400I-30480J0D01*
G01*
X10084019Y5287579D02*
G03*
X10084019Y5287579I-30480J0D01*
G01*
X10881070Y6112185D02*
G03*
X10881070Y6112185I-30480J0D01*
G01*
X11715915Y6908800D02*
G03*
X11715915Y6908800I-30480J0D01*
G01*
X11538115Y6910914D02*
G03*
X11538115Y6910914I-30480J0D01*
G01*
X11779352Y7048500D02*
G03*
X11779352Y7048500I-30480J0D01*
G01*
X11511280D02*
G03*
X11511280Y7048500I-30480J0D01*
G01*
X14063980Y6223000D02*
G03*
X14063980Y6223000I-30480J0D01*
G01*
X13670280Y6070600D02*
G03*
X13670280Y6070600I-30480J0D01*
G01*
X11407062Y7539733D02*
G03*
X11407062Y7539733I-30480J0D01*
G01*
X7383780Y7988300D02*
G03*
X7383780Y7988300I-30480J0D01*
G01*
X12170779Y6664539D02*
G03*
X12170779Y6664539I-30480J0D01*
G01*
X11472075Y6662159D02*
G03*
X11472075Y6662159I-30480J0D01*
G01*
X14546581Y5867400D02*
G03*
X14546581Y5867400I-30480J0D01*
G01*
X11902979Y8529600D02*
G03*
X11902979Y8529600I-30480J0D01*
G01*
X12031980Y8534400D02*
G03*
X12031980Y8534400I-30480J0D01*
G01*
X13162393Y7396549D02*
G03*
X13162393Y7396549I-30480J0D01*
G01*
X13301981Y7543800D02*
G03*
X13301981Y7543800I-30480J0D01*
G01*
X13098779Y7175500D02*
G03*
X13098779Y7175500I-30480J0D01*
G01*
X13251180Y7315200D02*
G03*
X13251180Y7315200I-30480J0D01*
G01*
X5491480Y7404100D02*
G03*
X5491480Y7404100I-30480J0D01*
G01*
Y6438900D02*
G03*
X5491480Y6438900I-30480J0D01*
G01*
X5408107Y6088762D02*
G03*
X5408107Y6088762I-30480J0D01*
G01*
X5402580Y6375400D02*
G03*
X5402580Y6375400I-30480J0D01*
G01*
X11917680Y7048500D02*
G03*
X11917680Y7048500I-30480J0D01*
G01*
X11374676Y7923505D02*
G03*
X11374676Y7923505I-30480J0D01*
G01*
X11847388Y7171109D02*
G03*
X11847388Y7171109I-30480J0D01*
G01*
X11511280Y7175500D02*
G03*
X11511280Y7175500I-30480J0D01*
G01*
X11335359Y6590344D02*
G03*
X11335359Y6590344I-30480J0D01*
G01*
X7675880Y7493000D02*
G03*
X7675880Y7493000I-30480J0D01*
G01*
X12032503Y6783668D02*
G03*
X12032503Y6783668I-30480J0D01*
G01*
X11472075Y6787350D02*
G03*
X11472075Y6787350I-30480J0D01*
G01*
X6570980Y6367200D02*
G03*
X6570980Y6367200I-30480J0D01*
G01*
Y7086600D02*
G03*
X6570980Y7086600I-30480J0D01*
G01*
X6640570Y5740853D02*
G03*
X6640570Y5740853I-30480J0D01*
G01*
X11405573Y7405498D02*
G03*
X11405573Y7405498I-30480J0D01*
G01*
X7764780Y5842000D02*
G03*
X7764780Y5842000I-30480J0D01*
G01*
Y6146800D02*
G03*
X7764780Y6146800I-30480J0D01*
G01*
X8031480Y7023100D02*
G03*
X8031480Y7023100I-30480J0D01*
G01*
X8030580Y6773755D02*
G03*
X8030580Y6773755I-30480J0D01*
G01*
X8039648Y6386212D02*
G03*
X8039648Y6386212I-30480J0D01*
G01*
X13035268Y7383327D02*
G03*
X13035268Y7383327I-30480J0D01*
G01*
X13032092Y7610041D02*
G03*
X13032092Y7610041I-30480J0D01*
G01*
X13043607Y7770132D02*
G03*
X13043607Y7770132I-30480J0D01*
G01*
X12626579Y8118938D02*
G03*
X12626579Y8118938I-30480J0D01*
G01*
X12526033Y8119608D02*
G03*
X12526033Y8119608I-30480J0D01*
G01*
X12324080Y8128000D02*
G03*
X12324080Y8128000I-30480J0D01*
G01*
X8018780Y7162800D02*
G03*
X8018780Y7162800I-30480J0D01*
G01*
X14025880Y6921500D02*
G03*
X14025880Y6921500I-30480J0D01*
G01*
X13352780D02*
G03*
X13352780Y6921500I-30480J0D01*
G01*
X12330216Y6546977D02*
G03*
X12330216Y6546977I-30480J0D01*
G01*
X11689080Y6261100D02*
G03*
X11689080Y6261100I-30480J0D01*
G01*
X10406380Y5384800D02*
G03*
X10406380Y5384800I-30480J0D01*
G01*
X9326880Y5676900D02*
G03*
X9326880Y5676900I-30480J0D01*
G01*
X9589847Y4298437D02*
G03*
X9589847Y4298437I-30480J0D01*
G01*
X11532685Y4305043D02*
G03*
X11532685Y4305043I-30480J0D01*
G01*
X8679240Y7932098D02*
G03*
X8679240Y7932098I-30480J0D01*
G01*
X8677870Y7740108D02*
G03*
X8677870Y7740108I-30480J0D01*
G01*
%TF.MD5,c9945cf0d73ea5ce360d026748b7678f*%
M02*
