M48
;Layer_Color=9474304
;FILE_FORMAT=4:3
METRIC,LZ
;TYPE=PLATED
T01F00S00C0.300
T02F00S00C0.330
T03F00S00C0.711
T04F00S00C0.900
T05F00S00C1.020
T06F00S00C1.100
T07F00S00C1.600
T08F00S00C3.200
;TYPE=NON_PLATED
T09F00S00C1.000
T10F00S00C3.250
%
T01
X0100649Y0071882
X0099949Y0072582
X0100649Y0073282
X0101349Y0072582
X0102049Y0073282
X0102749Y0072582
Y0073982
X0101349
X0102049Y0074682
X0100649
X0099949Y0073982
X0102049Y0071882
X0061373Y006792
X0060152Y0067909
X0058777Y0067912
Y0066612
Y0065312
Y0064012
Y0062712
Y0061412
Y0060112
X0060077
X0061377
X0061378Y0061438
X00614Y0062736
X00614Y0064034
X0061379Y0065339
X0061333Y0066641
T02
X0123744Y0047782
X0126111Y0051181
Y0052705
X0126241Y0055499
X0122997Y006547
X0121403Y0066645
X012002Y0067837
X0130683Y0071755
X0130048Y0073833
X0131319Y0073965
X0132207Y0073152
X0132715Y0075438
X0130016Y00761
X0130131Y0077701
X0133223Y0069215
X0139954
X0140335Y006223
X0136398Y0060706
X0145161Y0058674
X0116586Y0062611
X0114416Y0066622
Y0067873
X0115076Y0069109
X0114808Y0070485
Y0071755
X0113751Y0074055
X0113766Y0075397
X0113665Y0076708
X0113442Y0079235
X0118169Y0071711
X0117489Y0070485
X0118872
X0116854Y0069088
X0113049Y0065903
X0109728Y0061214
X0108506Y0061122
X0107241Y005293
X0106172Y0052832
X0103759Y0053848
X0100535Y0052876
X0099365Y0052806
X0098425Y0060452
X0094273Y0061566
X0092964Y0056769
X009238Y0055908
X0089154Y00635
X0080092Y0063862
X0080001Y0067738
X008001Y0070231
X0079883Y0071628
X0089216Y0074237
X0086474Y0077401
X0086488Y0079321
X0095594Y0042984
X0115022Y004305
X0077343Y005842
Y0061468
X0065405Y0063672
X0066441Y0064954
X0065405Y0070866
X005461Y0074041
X0052819Y0079235
X0053721Y0063754
X005461Y0064389
X0053776Y0060888
X0066101Y0057409
X0076454Y007493
X0073533Y0079883
X0071653Y008128
X0118725Y0085296
X0120015Y0085344
X0122936Y008128
X0124956Y0081196
X0125961Y0081189
T03
X006006Y006193
X0060094Y0064142
X0060049Y0066238
T04
X0133375Y0052712
X0135915
X0138455
X0140995
X0139725Y0055252
X0137185
X0134645
X0142265
T05
X0131495Y0041402
X0134035Y0042982
X0141605Y0041402
X0144145Y0042982
X0087249Y0052832
Y0055372
X0078486Y008636
X0075946Y0086233
X0073406
X0070866
X0081026Y008636
X0083566
T06
X0043561Y0046355
Y0049855
Y0070612
Y0074112
T07
X0129945Y0049412
X0145695
T08
X0043481Y0039417
X0153289Y0039497
X0043481Y0084535
X0153289Y0084535
T09
X009995Y0040132
X010795
T10
X0132105Y0046362
X0143535
M30
