%TF.GenerationSoftware,Altium Limited,Altium Designer Develop,26.7.1 (13)*%
G04 Layer_Color=255*
G04 Board_Origin=0|0*
%FSLAX45Y45*%
%MOMM*%
%TF.SameCoordinates,A6A943FD-06CA-46E7-8757-D48672C4C33E*%
%TF.FilePolarity,Positive*%
%TF.FileFunction,Pads,Bot*%
%TF.Part,Single*%
G01*
G75*
%TA.AperFunction,ComponentPad*%
%ADD43C,1.70000*%
%ADD44R,1.52400X1.52400*%
%ADD45C,1.52400*%
%ADD46C,1.60000*%
%ADD47C,2.20000*%
%ADD48C,1.00000*%
%ADD49C,3.25000*%
D43*
X4356100Y7061200D02*
D03*
Y7411200D02*
D03*
Y4635500D02*
D03*
Y4985500D02*
D03*
D44*
X13337500Y5271200D02*
D03*
D45*
X13591499D02*
D03*
X7848600Y8636000D02*
D03*
X13464500Y5525200D02*
D03*
X7594600Y8623300D02*
D03*
X8356600Y8636000D02*
D03*
X13845500Y5271200D02*
D03*
X8724900Y5537200D02*
D03*
X13972501Y5525200D02*
D03*
X13718500D02*
D03*
X14226500D02*
D03*
X7340600Y8623300D02*
D03*
X8102600Y8636000D02*
D03*
X7086600Y8623300D02*
D03*
X8724900Y5283200D02*
D03*
X14099500Y5271200D02*
D03*
D46*
X13149500Y4140200D02*
D03*
X14414500Y4298200D02*
D03*
X14160500Y4140200D02*
D03*
X13403500Y4298200D02*
D03*
D47*
X14569501Y4941200D02*
D03*
X12994501D02*
D03*
D48*
X9995000Y4013200D02*
D03*
X10795000D02*
D03*
D49*
X13210500Y4636200D02*
D03*
X14353500D02*
D03*
%TF.MD5,9e2c1d95f9e5525e6ca2badaa0b9fc86*%
M02*
