%TF.GenerationSoftware,Altium Limited,Altium Designer Develop,26.7.1 (13)*%
G04 Layer_Color=0*
G04 Board_Origin=0|0*
%FSLAX45Y45*%
%MOMM*%
%TF.SameCoordinates,A6A943FD-06CA-46E7-8757-D48672C4C33E*%
%TF.FilePolarity,Positive*%
%TF.FileFunction,Plated,1,2,PTH,Drill*%
%TF.Part,Single*%
G01*
G75*
%TA.AperFunction,ComponentDrill*%
%ADD104C,1.10000*%
%ADD105C,0.90000*%
%ADD106C,1.02000*%
%ADD107C,1.02000*%
%ADD108C,1.60000*%
%TA.AperFunction,ViaDrill,NotFilled*%
%ADD109C,0.33020*%
%ADD110C,3.20000*%
%ADD111C,0.30000*%
%ADD112C,0.71120*%
D104*
X4356100Y7061200D02*
D03*
Y7411200D02*
D03*
Y4635500D02*
D03*
Y4985500D02*
D03*
D105*
X13337500Y5271200D02*
D03*
X13591499D02*
D03*
X13464500Y5525200D02*
D03*
X13845500Y5271200D02*
D03*
X13972501Y5525200D02*
D03*
X13718500D02*
D03*
X14226500D02*
D03*
X14099500Y5271200D02*
D03*
D106*
X7848600Y8636000D02*
D03*
X7594600Y8623300D02*
D03*
X8356600Y8636000D02*
D03*
X13149500Y4140200D02*
D03*
X14414500Y4298200D02*
D03*
X7340600Y8623300D02*
D03*
X8102600Y8636000D02*
D03*
X14160500Y4140200D02*
D03*
X13403500Y4298200D02*
D03*
X7086600Y8623300D02*
D03*
D107*
X8724900Y5537200D02*
D03*
Y5283200D02*
D03*
D108*
X14569501Y4941200D02*
D03*
X12994501D02*
D03*
D109*
X6644138Y6495381D02*
D03*
X5281902Y7923502D02*
D03*
X12611100Y5270500D02*
D03*
Y5118100D02*
D03*
X7165340Y8128000D02*
D03*
X11366500Y7670800D02*
D03*
X12624100Y5549900D02*
D03*
X9237962Y5590791D02*
D03*
X8921555Y7423662D02*
D03*
X12374449Y4778236D02*
D03*
X8915400Y6350000D02*
D03*
X9842500Y6045200D02*
D03*
X10617200Y5283200D02*
D03*
X9427254Y6156597D02*
D03*
X10724140Y5293035D02*
D03*
X9936529Y5280613D02*
D03*
X10972800Y6121400D02*
D03*
X10053539Y5287579D02*
D03*
X10850590Y6112185D02*
D03*
X11685435Y6908800D02*
D03*
X11507635Y6910914D02*
D03*
X11748872Y7048500D02*
D03*
X11480800D02*
D03*
X14033501Y6223000D02*
D03*
X13639799Y6070600D02*
D03*
X11376582Y7539733D02*
D03*
X7353300Y7988300D02*
D03*
X12140299Y6664539D02*
D03*
X11441595Y6662159D02*
D03*
X14516100Y5867400D02*
D03*
X11872499Y8529600D02*
D03*
X12001500Y8534400D02*
D03*
X13131914Y7396549D02*
D03*
X13271500Y7543800D02*
D03*
X13068300Y7175500D02*
D03*
X13220700Y7315200D02*
D03*
X5461000Y7404100D02*
D03*
Y6438900D02*
D03*
X5377627Y6088762D02*
D03*
X5372100Y6375400D02*
D03*
X11887200Y7048500D02*
D03*
X11344196Y7923505D02*
D03*
X11816908Y7171109D02*
D03*
X11480800Y7175500D02*
D03*
X11304879Y6590344D02*
D03*
X7645400Y7493000D02*
D03*
X12002023Y6783668D02*
D03*
X11441595Y6787350D02*
D03*
X6540500Y6367200D02*
D03*
Y7086600D02*
D03*
X6610090Y5740853D02*
D03*
X11375093Y7405498D02*
D03*
X7734300Y5842000D02*
D03*
Y6146800D02*
D03*
X8001000Y7023100D02*
D03*
X8000100Y6773755D02*
D03*
X8009168Y6386212D02*
D03*
X13004788Y7383327D02*
D03*
X13001611Y7610041D02*
D03*
X13013127Y7770132D02*
D03*
X12596099Y8118938D02*
D03*
X12495553Y8119608D02*
D03*
X12293600Y8128000D02*
D03*
X7988300Y7162800D02*
D03*
X13995399Y6921500D02*
D03*
X13322301D02*
D03*
X12299736Y6546977D02*
D03*
X11658600Y6261100D02*
D03*
X10375900Y5384800D02*
D03*
X9296400Y5676900D02*
D03*
X9559367Y4298437D02*
D03*
X11502205Y4305043D02*
D03*
X8648760Y7932098D02*
D03*
X8647390Y7740108D02*
D03*
D110*
X4348099Y8453501D02*
D03*
X4348100Y3941700D02*
D03*
X15328900Y8453500D02*
D03*
Y3949700D02*
D03*
D111*
X5877700Y6271200D02*
D03*
Y6141200D02*
D03*
X6137839Y6143780D02*
D03*
X6139967Y6273587D02*
D03*
X5877700Y6661200D02*
D03*
Y6531200D02*
D03*
X6133305Y6664127D02*
D03*
X6137863Y6533934D02*
D03*
X5877700Y6401200D02*
D03*
X6139970Y6403414D02*
D03*
X6015213Y6790861D02*
D03*
X6007700Y6011200D02*
D03*
X6137700D02*
D03*
X6137318Y6792016D02*
D03*
X5877700Y6011200D02*
D03*
Y6791200D02*
D03*
X10274900Y7258200D02*
D03*
X10134900D02*
D03*
X9994900D02*
D03*
Y7398200D02*
D03*
X10274900D02*
D03*
X10134900D02*
D03*
X10064900Y7328200D02*
D03*
Y7188200D02*
D03*
X10204900D02*
D03*
Y7328200D02*
D03*
Y7468200D02*
D03*
X10064900D02*
D03*
D112*
X6005980Y6192998D02*
D03*
X6004850Y6623830D02*
D03*
X6009434Y6414161D02*
D03*
%TF.MD5,df6857bea99aab68775992825eabf129*%
M02*
